# xmcd CD database file
#
# Track frame offsets:
#	150
#	17292
#	38171
#	54880
#	70673
#	87660
#	103744
#	118557
#	138708
#	154808
#	173104
#
# Disc length: 2584 seconds
#
# Revision: 0
# Processed by: cddbd v1.5.2PL0 Copyright (c) Steve Scherf et al.
# Submitted via: CDex 1.51
#
DISCID=8a0a160b
DTITLE=Brenster (Brent McAthey) - Blame it on Mexico
DYEAR=2006
DGENRE=Country
TTITLE0=Found in Mexico
TTITLE1=Blue Bikini
TTITLE2=Blame it on Mexico
TTITLE3=Waves Crash
TTITLE4=Sunday Mornin' Sun
TTITLE5=Marry Me in Mexico
TTITLE6=I Don't Even Know
TTITLE7=Just Let Me Be
TTITLE8=Hammock Haven
TTITLE9=Margaritaville
TTITLE10=Be As You Are
EXTD=YEAR: 2006
EXTT0=
EXTT1=
EXTT2=
EXTT3=
EXTT4=
EXTT5=
EXTT6=
EXTT7=
EXTT8=
EXTT9=
EXTT10=
PLAYORDER=
